# xmcd
#
# Track frame offsets:
#	150
#	9802
#	23365
#	40710
#	49067
#	76790
#	83937
#	91270
#	95625
#	112227
#	132210
#	145002
#	154837
#	162875
#	175032
#	178870
#
# Disc length: 2652 seconds
#
# Revision: 1
# Processed by: cddbd v1.5.1PL0 Copyright (c) Steve Scherf et al.
# Submitted via: CDex 1.50Beta5
#
DISCID=b70a5a10
DTITLE=新日本フィルハーモニー交響楽団 - 交響詩「幻想軌道」
DYEAR=1900
DGENRE=
TTITLE0=新日本フィルハーモニー交響楽団/Prologue-Megalopolis Station-
TTITLE1=新日本フィルハーモニー交響楽団/幻想軌道序曲
TTITLE2=新日本フィルハーモニー交響楽団/序曲
TTITLE3=佐々木 功/宇宙戦艦ヤマト
TTITLE4=MC1
TTITLE5=新日本フィルハーモニー交響楽団/出発
TTITLE6=新日本フィルハーモニー交響楽団/出撃
TTITLE7=新日本フィルハーモニー交響楽団/勝利
TTITLE8=MC2
TTITLE9=鈴木 隆太/白色彗星
TTITLE10=新日本フィルハーモニー交響楽団/アンドロメダ
TTITLE11=萩谷 清/デスラー
TTITLE12=新日本フィルハーモニー交響楽団/都市帝国
TTITLE13=新日本フィルハーモニー交響楽団/大いなる愛
TTITLE14=新日本フィルハーモニー交響楽団/INTERMISSION
TTITLE15=クリヤ・マコト/ヤマトより愛をこめて
EXTD=
EXTT0=
EXTT1=
EXTT2=
EXTT3=
EXTT4=
EXTT5=
EXTT6=
EXTT7=
EXTT8=
EXTT9=
EXTT10=
EXTT11=
EXTT12=
EXTT13=
EXTT14=
EXTT15=
PLAYORDER=
